<svg width="24" height="31" viewBox="0 0 24 31" fill="none" xmlns="http://www.w3.org/2000/svg">
<path d="M12.0506 0C12.4729 0.148048 12.7738 0.436862 13.0499 0.783924C15.6092 4.00153 18.0574 7.2962 20.1538 10.8384C21.0991 12.436 21.9321 14.0894 22.622 15.8168C23.497 18.0078 23.5989 20.2231 22.9497 22.4808C22.1202 25.3641 20.4468 27.6242 17.9027 29.2242C15.8798 30.4966 13.6548 31.0833 11.2727 30.9905C8.47195 30.8813 5.99397 29.9123 3.88976 28.0411C1.97849 26.3416 0.792892 24.221 0.233466 21.7387C-0.264071 19.5308 0.0635754 17.4211 0.931838 15.3563C2.25335 12.2133 4.0281 9.33003 6.01218 6.5778C7.46292 4.56521 9.03077 2.63755 10.5386 0.665608C10.78 0.349489 11.0877 0.147441 11.4444 0H12.0512L12.0506 0ZM11.7065 3.23338C11.6204 3.33593 11.5743 3.38811 11.5312 3.44271C9.51739 5.96013 7.64252 8.57645 5.93815 11.3117C4.89211 12.9906 3.92737 14.7162 3.21929 16.5704C2.90924 17.3822 2.62286 18.2123 2.60223 19.0848C2.54762 21.4032 3.25145 23.4777 4.76955 25.2464C6.27975 27.0066 8.20619 28.0362 10.5058 28.3244C12.8903 28.6229 15.0886 28.092 17.0448 26.6807C18.9275 25.3222 20.0991 23.4825 20.5839 21.223C20.8224 20.112 20.8813 18.9907 20.5718 17.8676C20.2484 16.6948 19.7794 15.5844 19.2339 14.5032C17.8578 11.774 16.1553 9.24751 14.3732 6.77257C13.5189 5.58576 12.6142 4.43475 11.7065 3.23338Z" fill="white"/>
<path d="M8.75063 22.7374C8.16269 22.1562 7.56079 21.5622 6.98438 20.993C9.56247 18.4204 12.1539 15.8338 14.7211 13.2715C15.2847 13.8346 15.8879 14.4371 16.474 15.0226C13.9159 17.5782 11.3245 20.1672 8.75063 22.738V22.7374Z" fill="white"/>
<path d="M14.2925 20.6205C14.2955 19.913 14.878 19.3299 15.5843 19.3281C16.2839 19.3263 16.8773 19.9143 16.8858 20.6175C16.8942 21.328 16.2899 21.9275 15.5721 21.9202C14.861 21.9129 14.2895 21.3322 14.2925 20.6205Z" fill="white"/>
<path d="M9.07984 15.4533C9.07438 16.1632 8.49554 16.7287 7.77897 16.7251C7.06603 16.7215 6.48598 16.1426 6.4878 15.4364C6.48962 14.7155 7.08727 14.1337 7.81052 14.1482C8.52831 14.1628 9.08591 14.7356 9.07984 15.4527V15.4533Z" fill="white"/>
</svg>
