<svg width="26" height="26" viewBox="0 0 26 26" fill="none" xmlns="http://www.w3.org/2000/svg">
<mask id="mask0_23_56" style="mask-type:alpha" maskUnits="userSpaceOnUse" x="0" y="0" width="26" height="26">
<rect width="26" height="26" fill="white"/>
</mask>
<g mask="url(#mask0_23_56)">
<path d="M5.3355 20.6646C4.3605 19.6716 3.58862 18.5205 3.01987 17.2115C2.45112 15.9025 2.16675 14.4986 2.16675 13C2.16675 11.4834 2.45112 10.0705 3.01987 8.76149C3.58862 7.45246 4.3605 6.31045 5.3355 5.33545L6.87925 6.8792C6.0848 7.67364 5.46189 8.59448 5.0105 9.6417C4.55911 10.6889 4.33341 11.8084 4.33341 13C4.33341 14.2098 4.55911 15.3382 5.0105 16.3854C5.46189 17.4327 6.0848 18.3445 6.87925 19.1209L5.3355 20.6646ZM8.39591 17.6042C7.81814 17.0084 7.35772 16.3177 7.01466 15.5323C6.67161 14.7469 6.50008 13.9028 6.50008 13C6.50008 12.0792 6.67161 11.2261 7.01466 10.4407C7.35772 9.65524 7.81814 8.97364 8.39591 8.39587L9.93966 9.93962C9.54244 10.3368 9.23098 10.7973 9.00529 11.3209C8.77959 11.8445 8.66675 12.4042 8.66675 13C8.66675 13.5959 8.77959 14.1556 9.00529 14.6792C9.23098 15.2028 9.54244 15.6632 9.93966 16.0605L8.39591 17.6042ZM13.0001 15.1667C12.4042 15.1667 11.8942 14.9545 11.4699 14.5302C11.0456 14.1059 10.8334 13.5959 10.8334 13C10.8334 12.4042 11.0456 11.8941 11.4699 11.4698C11.8942 11.0455 12.4042 10.8334 13.0001 10.8334C13.5959 10.8334 14.106 11.0455 14.5303 11.4698C14.9546 11.8941 15.1667 12.4042 15.1667 13C15.1667 13.5959 14.9546 14.1059 14.5303 14.5302C14.106 14.9545 13.5959 15.1667 13.0001 15.1667ZM17.6042 17.6042L16.0605 16.0605C16.4577 15.6632 16.7692 15.2028 16.9949 14.6792C17.2206 14.1556 17.3334 13.5959 17.3334 13C17.3334 12.4042 17.2206 11.8445 16.9949 11.3209C16.7692 10.7973 16.4577 10.3368 16.0605 9.93962L17.6042 8.39587C18.182 8.97364 18.6424 9.65524 18.9855 10.4407C19.3286 11.2261 19.5001 12.0792 19.5001 13C19.5001 13.9028 19.3286 14.7469 18.9855 15.5323C18.6424 16.3177 18.182 17.0084 17.6042 17.6042ZM20.6647 20.6646L19.1209 19.1209C19.9154 18.3264 20.5383 17.4056 20.9897 16.3584C21.4411 15.3111 21.6667 14.1917 21.6667 13C21.6667 11.7903 21.4411 10.6618 20.9897 9.61462C20.5383 8.56739 19.9154 7.65559 19.1209 6.8792L20.6647 5.33545C21.6397 6.31045 22.4115 7.45246 22.9803 8.76149C23.549 10.0705 23.8334 11.4834 23.8334 13C23.8334 14.4986 23.549 15.9025 22.9803 17.2115C22.4115 18.5205 21.6397 19.6716 20.6647 20.6646Z" fill="white"/>
</g>
</svg>
