<svg width="40" height="40" viewBox="0 0 40 40" fill="none" xmlns="http://www.w3.org/2000/svg">
<mask id="mask0_23_39" style="mask-type:alpha" maskUnits="userSpaceOnUse" x="0" y="0" width="40" height="40">
<rect width="40" height="40" fill="#DDDDDD"/>
</mask>
<g mask="url(#mask0_23_39)">
<path d="M18.7498 8.68585V2.5321H21.2498V8.68585H18.7498ZM28.8715 12.8846L27.1152 11.1121L31.4711 6.73085L33.2273 8.52877L28.8715 12.8846ZM31.314 21.25V18.75H37.4677V21.25H31.314ZM31.4711 33.2275L27.1152 28.8717L28.8877 27.0992L33.269 31.4296L31.4711 33.2275ZM11.144 12.9009L6.75647 8.51294L8.55438 6.74669L12.9006 11.1442L11.144 12.9009ZM10.4806 31.7629H17.6602C18.4613 31.7629 19.1477 31.4771 19.7194 30.9054C20.291 30.3338 20.5769 29.6474 20.5769 28.8463C20.5769 28.0449 20.3006 27.3611 19.7481 26.795C19.1959 26.2286 18.5191 25.9454 17.7177 25.9454H15.8494L15.1281 24.2179C14.7179 23.2585 14.0773 22.4972 13.2065 21.9342C12.3359 21.3711 11.3738 21.0896 10.3202 21.0896C8.8566 21.0896 7.61466 21.5997 6.59438 22.62C5.5741 23.6403 5.06397 24.8824 5.06397 26.3463C5.06397 27.8527 5.59008 29.132 6.6423 30.1842C7.6948 31.2367 8.97424 31.7629 10.4806 31.7629ZM10.4806 34.2629C8.29258 34.2629 6.42619 33.4904 4.88147 31.9454C3.33646 30.4007 2.56396 28.5343 2.56396 26.3463C2.56396 24.1902 3.31771 22.3584 4.82521 20.8509C6.33271 19.3434 8.16438 18.5896 10.3202 18.5896C11.9122 18.5896 13.3609 19.0304 14.6665 19.9121C15.972 20.7935 16.9208 21.9713 17.5127 23.4454C19.0169 23.4454 20.3176 23.9546 21.4148 24.9729C22.512 25.991 23.066 27.3279 23.0769 28.9838C23.0424 30.4604 22.5029 31.7095 21.4581 32.7309C20.4131 33.7522 19.1472 34.2629 17.6602 34.2629H10.4806ZM23.0448 28.6634C22.9379 28.2467 22.8309 27.8413 22.724 27.4471C22.6173 27.0529 22.5105 26.6475 22.4035 26.2309C23.6858 25.6922 24.7167 24.8647 25.4965 23.7484C26.2765 22.632 26.6665 21.3825 26.6665 20C26.6665 18.1667 26.0137 16.5972 24.7081 15.2917C23.4026 13.9861 21.8331 13.3334 19.9998 13.3334C18.3012 13.3334 16.8215 13.8938 15.5606 15.0146C14.3001 16.1352 13.5801 17.5449 13.4006 19.2438C12.984 19.1368 12.5587 19.0385 12.1248 18.9488C11.6912 18.859 11.266 18.7607 10.8494 18.6538C11.1741 16.3804 12.2077 14.5086 13.9502 13.0384C15.6927 11.5684 17.7092 10.8334 19.9998 10.8334C22.5426 10.8334 24.7061 11.7254 26.4902 13.5096C28.2744 15.2938 29.1665 17.4572 29.1665 20C29.1665 21.9572 28.6061 23.7206 27.4852 25.29C26.3647 26.8595 24.8845 27.9839 23.0448 28.6634Z" fill="#DDDDDD"/>
</g>
</svg>
