<svg width="17" height="35" viewBox="0 0 17 35" fill="none" xmlns="http://www.w3.org/2000/svg">
<path d="M6.43497 14.307H10.2765V14.7175C10.2765 17.4878 10.2799 20.2574 10.271 23.0276C10.2703 23.2709 10.3388 23.4108 10.5472 23.5485C12.066 24.5457 12.6458 26.5936 11.9008 28.2707C11.1407 29.9827 9.26828 30.9183 7.47056 30.4858C5.65707 30.0492 4.40285 28.39 4.4988 26.5676C4.56734 25.2606 5.13414 24.2339 6.22662 23.5101C6.41098 23.3881 6.43839 23.2524 6.43839 23.0592C6.43428 20.2889 6.43565 17.5193 6.43565 14.7491V14.3077L6.43497 14.307Z" fill="white"/>
<path d="M8.97081 0C9.67332 0.220689 10.4252 0.346111 11.0694 0.6792C13.0782 1.7189 14.2502 3.40628 14.3009 5.67142C14.3825 9.27098 14.3304 12.8733 14.3338 16.4749C14.3352 17.8655 14.327 19.2561 14.3427 20.646C14.3448 20.8187 14.4229 21.0285 14.5374 21.1573C16.1555 22.9811 16.8286 25.1153 16.6367 27.5258C16.3474 31.1644 13.3421 34.3548 9.71581 34.8962C5.84485 35.474 2.28642 33.6111 0.745024 30.0191C-0.597613 26.8904 -0.107574 23.9392 2.06984 21.2992C2.27751 21.0477 2.38648 20.8139 2.3858 20.4815C2.37551 15.6949 2.36866 10.9083 2.38305 6.12171C2.39128 3.52279 3.59753 1.64146 5.94354 0.528419C6.50075 0.264552 7.13745 0.171342 7.73715 0C8.14837 0 8.55959 0 8.97081 0ZM4.70782 12.4511V12.8931C4.70782 15.7881 4.70508 18.6831 4.71262 21.5774C4.71331 21.8379 4.64066 22.0127 4.4371 22.1861C3.03004 23.3806 2.33713 24.9268 2.34193 26.7533C2.35221 30.5133 5.82497 33.3624 9.51157 32.5982C11.8624 32.1109 13.4613 30.6682 14.1015 28.3475C14.7608 25.9563 14.1378 23.8686 12.2633 22.1984C12.0735 22.0291 12.0015 21.8646 12.0022 21.6151C12.0091 16.5208 12.0077 11.4265 12.007 6.33212C12.007 6.14981 12.0049 5.9675 11.9967 5.78519C11.922 4.09508 10.7096 2.70104 9.02564 2.36726C7.41297 2.04719 5.75918 2.91281 5.04365 4.42268C4.58103 5.39864 4.74004 6.42396 4.70988 7.47942C4.8682 7.47942 4.99019 7.47942 5.11219 7.47942C5.76329 7.47942 6.4137 7.47737 7.0648 7.48011C7.69192 7.48285 8.04831 7.75426 8.05859 8.22853C8.06887 8.71103 7.70288 8.99203 7.05247 8.99477C6.49321 8.99751 5.93326 8.99477 5.374 8.99477C5.16154 8.99477 4.94976 8.99477 4.73798 8.99477V10.8823C5.55425 10.8823 6.34105 10.8795 7.12854 10.8836C7.58363 10.8857 7.89204 11.0735 8.00718 11.4025C8.19703 11.9446 7.82008 12.4415 7.19639 12.449C6.38697 12.4586 5.57687 12.4511 4.70919 12.4511H4.70782Z" fill="white"/>
</svg>
